<?xml version="1.0" encoding="utf-8"?>
<!-- Generator: Adobe Illustrator 16.0.0, SVG Export Plug-In . SVG Version: 6.00 Build 0)  -->
<!DOCTYPE svg PUBLIC "-//W3C//DTD SVG 1.1//EN" "http://www.w3.org/Graphics/SVG/1.1/DTD/svg11.dtd">
<svg version="1.1" id="图层_1" xmlns="http://www.w3.org/2000/svg" xmlns:xlink="http://www.w3.org/1999/xlink" x="0px" y="0px"
	 width="262px" height="96px" viewBox="0 0 262 96" enable-background="new 0 0 262 96" xml:space="preserve">
<g>
	<defs>
		<rect id="SVGID_1_" x="-165.563" y="-297.015" width="595.28" height="841.89"/>
	</defs>
	<clipPath id="SVGID_2_">
		<use xlink:href="#SVGID_1_"  overflow="visible"/>
	</clipPath>
	<path clip-path="url(#SVGID_2_)" fill="#D3DDF1" d="M152.219,90.145c3.477,0,7.082-2.099,8.014-4.664l0.116-0.317
		c0.931-2.565-1.151-4.664-4.628-4.664h-8.385c-3.423,0-6.974,2.066-7.891,4.592l-2.111,5.814c-0.976,2.687,1.205,4.886,4.846,4.886
		h13.663l0.923-2.538h-12.89c-1.135,0-1.814-0.685-1.511-1.523l0.576-1.586H152.219z M148.192,83.101l5.148-0.008
		c1.583,0,2.531,0.956,2.107,2.124l-0.073,0.202c-0.424,1.168-2.066,2.124-3.649,2.124h-7.84l0.891-2.451
		C145.173,83.999,146.71,83.103,148.192,83.101"/>
	<path clip-path="url(#SVGID_2_)" fill="#D3DDF1" d="M179.933,90.145c3.477,0,7.082-2.099,8.014-4.664l0.114-0.317
		c0.933-2.565-1.149-4.664-4.626-4.664h-8.385c-3.423,0-6.974,2.066-7.891,4.592l-2.111,5.814c-0.976,2.687,1.205,4.886,4.846,4.886
		h13.663l0.922-2.538H171.59c-1.135,0-1.814-0.685-1.511-1.523l0.576-1.586H179.933z M175.906,83.101l5.148-0.008
		c1.583,0,2.531,0.956,2.107,2.124l-0.073,0.202c-0.424,1.168-2.066,2.124-3.649,2.124h-7.84l0.891-2.451
		C172.887,83.999,174.424,83.103,175.906,83.101"/>
	<path clip-path="url(#SVGID_2_)" fill="#D3DDF1" d="M238.833,80.5h-4.92c-5.144,0-10.479,3.105-11.857,6.9l-0.542,1.491
		c-1.378,3.795,1.703,6.9,6.846,6.9h4.921c5.143,0,10.479-3.105,11.856-6.9l0.541-1.491C247.056,83.605,243.976,80.5,238.833,80.5
		 M240.501,88.219c-1.008,2.774-4.908,5.044-8.668,5.044h-0.19c-3.76,0-6.012-2.27-5.005-5.044l0.053-0.147
		c1.009-2.774,4.908-5.044,8.668-5.044h0.191c3.76,0,6.012,2.27,5.004,5.044L240.501,88.219z"/>
	<path clip-path="url(#SVGID_2_)" fill="#D3DDF1" d="M214.102,76.169l-5.586,15.383c-0.373,1.027-1.35,1.711-2.442,1.711h-1.867
		c-3.76,0-6.012-2.27-5.005-5.044l0.054-0.147c1.007-2.774,4.908-5.044,8.668-5.044h0.977l0.918-2.528h-3.341
		c-5.144,0-10.479,3.105-11.857,6.9l-0.541,1.491c-1.379,3.795,1.702,6.9,6.845,6.9h6.04h0.014h3.342
		c1.192,0,2.259-0.746,2.667-1.868l6.446-17.754H214.102z"/>
	<path clip-path="url(#SVGID_2_)" fill="#D3DDF1" d="M112.462,83.069l0.933-2.57H98.002H94.49c-1.092,0-2.066,0.683-2.438,1.709
		l-0.313,0.861l-4.62,12.722h5.331l2.065-5.689h12.606l0.93-2.56H95.445l1.624-4.473H112.462z"/>
	<path clip-path="url(#SVGID_2_)" fill="#D3DDF1" d="M117.995,85.798l-3.566,9.994h5.329l3.812-10.641
		c0.305-0.838,1.482-1.523,2.617-1.523h6.965l0.922-2.538h-7.993C122.558,81.09,118.937,83.198,117.995,85.798"/>
	<path clip-path="url(#SVGID_2_)" fill="#D3DDF1" d="M133.557,44.338l-1.134,7.117c2.856,0.982,3.063,4.217,0.619,9.705
		l-3.676,8.302h3.288l3.208-0.035l3.382-7.549C142.835,53.06,140.939,47.213,133.557,44.338"/>
	<path clip-path="url(#SVGID_2_)" fill="#D3DDF1" d="M138.098,42.432c0.996,0,1.922-0.299,2.776-0.898
		c0.852-0.599,1.353-1.342,1.499-2.229c0.139-0.839-0.121-1.557-0.775-2.156c-0.655-0.599-1.482-0.899-2.479-0.899
		c-1.023,0-1.964,0.3-2.816,0.899c-0.854,0.599-1.349,1.317-1.487,2.156c-0.146,0.887,0.107,1.63,0.764,2.229
		C136.232,42.133,137.074,42.432,138.098,42.432"/>
	<path clip-path="url(#SVGID_2_)" fill="#D3DDF1" d="M154.38,39.816h22.506l0.806-2.416h-9.053l0.528-1.546h-6.961l-0.528,1.546
		h-7.816c-3.559,0-5.814,1.522-6.768,4.565l-9.498,27.821h2.86c2.42,0,4.028-1.127,4.827-3.379L154.38,39.816z"/>
	<path clip-path="url(#SVGID_2_)" fill="#D3DDF1" d="M157.833,52.955h9.354c2.447,0,4.077-1.185,4.887-3.558l0.813-2.355h1.665
		l0.856-2.47h-1.666l0.798-2.399h-6.063l-0.799,2.399h-5.894l0.798-2.399h-6.106l-0.798,2.399h-1.664l-0.856,2.47h1.666
		l-0.814,2.355C153.191,51.794,154.465,52.979,157.833,52.955 M160.93,47.042h5.894l-1.13,3.397l-5.906,0.036L160.93,47.042z"/>
	<path clip-path="url(#SVGID_2_)" fill="#D3DDF1" d="M169.32,69.461c-0.15-0.017-4.067-2.109-7.232-4.535
		c0.083-0.046,0.173-0.092,0.252-0.137c4.445-2.534,7.074-5.392,7.074-5.392c1.813-2.396,1.596-3.845-0.65-4.348h-10.72h-7.219
		l-1.482,4.096c0,0,1.389,2.614,4.517,5.498c-3.423,1.623-7.147,3.228-10.105,4.818h7.556c0,0,2.813-0.99,5.819-2.234
		c1.177,0.795,2.49,1.558,3.965,2.234H169.32z M155.083,59.13l7.638-0.02c-0.861,1.037-2.321,2.067-4.098,3.089
		C157.198,61.044,155.937,59.964,155.083,59.13"/>
	<path clip-path="url(#SVGID_2_)" fill="#D3DDF1" d="M119.667,55.023l-0.492,3.906c0,0-5.696,1.224-6.965,4.08
		c-1.27,2.856,0.52,5.088,3.728,6.453c0,0-9.542-2.826-5.049-9.724C113.334,55.983,119.667,55.023,119.667,55.023"/>
	<path clip-path="url(#SVGID_2_)" fill="#D3DDF1" d="M173.935,61.392l5.589-1.232c-0.621,3.594,0.75,5.443,4.109,5.544
		c4.179,0.104,6.776-1.795,7.794-5.699c0.575-3.08-1.023-4.671-4.791-4.774h-3.851l1.28-4.467h2.618
		c3.901,0,6.425-1.641,7.574-4.928c0.662-2.668-0.48-4.054-3.427-4.158c-3.04,0.207-5.32,1.902-6.849,5.083l-4.883-1.232
		c3.025-5.545,7.326-8.367,12.901-8.471c6.539,0.104,9.073,3.08,7.603,8.933c-0.884,3.08-3.21,5.289-6.982,6.622
		c3.636,1.643,5.005,4.211,4.107,7.7c-2.178,6.161-6.852,9.395-14.023,9.703C176.366,69.913,173.443,67.039,173.935,61.392"/>
	<path clip-path="url(#SVGID_2_)" fill="#D3DDF1" d="M226.491,44.604l-5.326,1.386c0.031-2.977-1.251-4.413-3.846-4.313
		c-4.591-0.1-7.793,3.184-9.603,9.858c2.289-2.258,4.976-3.389,8.056-3.389c6.38,0.308,8.738,3.902,7.073,10.781
		c-2.413,6.983-7.016,10.677-13.807,11.088c-8.066,0.205-10.535-4.978-7.397-15.554c3.326-11.602,9.045-17.404,17.157-17.404
		C223.769,37.265,226.335,39.78,226.491,44.604 M210.231,65.857c3.519-0.101,5.964-2.36,7.334-6.776
		c1.104-4.209-0.076-6.366-3.536-6.469c-4.341,0.103-7.11,2.055-8.3,5.852C204.446,63.292,205.949,65.757,210.231,65.857"/>
	<path clip-path="url(#SVGID_2_)" fill="#D3DDF1" d="M228.197,53.691c3.325-10.882,8.611-16.427,15.858-16.634
		c7.494,0,9.652,5.544,6.473,16.634c-3.165,10.679-8.421,16.118-15.77,16.324C227.263,70.016,225.076,64.576,228.197,53.691
		 M233.588,53.691c-2.519,8.419-1.729,12.474,2.363,12.166c3.841,0.207,6.904-3.85,9.188-12.166
		c2.515-8.418,1.729-12.476-2.364-12.167C239.02,41.73,235.956,45.787,233.588,53.691"/>
	<path clip-path="url(#SVGID_2_)" fill="#D3DDF1" d="M145.788,28.869c3.941,0,7.407,0.899,10.309,2.464
		c9.686-14.66,26.809-25.1,43.381-25.1c16.609,0,27.761,10.486,28.998,25.197c3.868-1.625,7.93-2.561,11.951-2.561
		c13.393,0,21.521,10.094,19.289,23.086c0.396-0.988,0.757-1.989,1.049-3.008c4.133-14.412-4.2-26.095-18.612-26.095
		c-4.021,0-8.084,0.936-11.952,2.561c-1.237-14.711-12.388-25.197-28.997-25.197c-16.572,0-33.695,10.44-43.382,25.099
		c-2.901-1.564-6.366-2.463-10.308-2.463c-14.411,0-29.445,11.683-33.577,26.095c-0.292,1.019-0.506,2.02-0.676,3.008
		C118.479,38.963,132.396,28.869,145.788,28.869"/>
	<path clip-path="url(#SVGID_2_)" fill="#D3DDF1" d="M103.516,72.704l10.957-31.126c0-3.416-1.424-5.125-4.271-5.125H85.389v2.064
		c0,2.351,1.906,4.257,4.257,4.257h16.584L96.108,71.729c0.201,2.961,1.652,4.44,4.358,4.44h147.556
		c2.2,0,8.484-13.969,8.484-13.969s-5.333,11.534-10.499,11.534s-141.423-0.004-141.423-0.004
		C103.871,73.729,103.516,73.386,103.516,72.704"/>
	<path clip-path="url(#SVGID_2_)" fill="#D3DDF1" d="M52.45,61.74h-2.66l-9.184,25.232h2.66c6.939,0,14.683-5.677,17.208-12.616
		C63,67.417,59.389,61.74,52.45,61.74"/>
	<polygon clip-path="url(#SVGID_2_)" fill="#D3DDF1" points="44.159,52.887 28.531,95.824 1.279,95.824 23.107,35.854 
		74.488,35.854 68.288,52.887 	"/>
</g>
</svg>
